<svg id="Capa_1" enable-background="new 0 0 512 512" height="512" viewBox="0 0 512 512" width="512" xmlns="http://www.w3.org/2000/svg"><g><path d="m512 256c0 141.385-114.615 256-256 256s-256-114.615-256-256 114.615-256 256-256 256 114.615 256 256z" fill="#6a61b4"/><path d="m512 256c0 83.14-39.633 157.023-101.036 203.787h-289.817c-8.284 0-15-6.716-15-15v-250c0-8.284 6.716-15 15-15h379.317c7.497 24.074 11.536 49.671 11.536 76.213z" fill="#51489a"/><path d="m426 405.746h-390c-8.284 0-15-6.716-15-15v-250c0-8.284 6.716-15 15-15h390c8.284 0 15 6.716 15 15v250c0 8.285-6.716 15-15 15z" fill="#ffc14f"/><path d="m63.14 405.746h-27.14c-8.284 0-15-6.716-15-15v-250c0-8.284 6.716-15 15-15h27.14c-8.284 0-15 6.716-15 15v250c0 8.285 6.715 15 15 15z" fill="#ffb52d"/><path d="m475 348.102h-390c-8.284 0-15-6.716-15-15v-250c0-8.284 6.716-15 15-15h390c8.284 0 15 6.716 15 15v250c0 8.284-6.716 15-15 15z" fill="#def4f8"/><path d="m109.17 348.102h-24.17c-8.284 0-15-6.716-15-15v-250c0-8.284 6.716-15 15-15h24.17c-8.284 0-15 6.716-15 15v250c0 8.284 6.716 15 15 15z" fill="#c2eaf2"/><path d="m110 312.5v-1.42c0-4.142 3.358-7.5 7.5-7.5h35c4.142 0 7.5 3.358 7.5 7.5v1.42c0 4.142-3.358 7.5-7.5 7.5h-35c-4.142 0-7.5-3.358-7.5-7.5zm337.5-202.5h5c4.142 0 7.5-3.358 7.5-7.5v-1.42c0-4.142-3.358-7.5-7.5-7.5h-5c-4.142 0-7.5 3.358-7.5 7.5v1.42c0 4.142 3.358 7.5 7.5 7.5z" fill="#a6e0ec"/><path d="m134 156.7v-1.42c0-4.142 3.358-7.5 7.5-7.5h107.696c4.142 0 7.5 3.358 7.5 7.5v1.42c0 4.142-3.358 7.5-7.5 7.5h-107.696c-4.142 0-7.5-3.358-7.5-7.5zm7.5 40.34h107.696c4.142 0 7.5-3.358 7.5-7.5v-1.42c0-4.142-3.358-7.5-7.5-7.5h-107.696c-4.142 0-7.5 3.358-7.5 7.5v1.42c0 4.142 3.358 7.5 7.5 7.5zm0 32.84h107.696c4.142 0 7.5-3.358 7.5-7.5v-1.42c0-4.142-3.358-7.5-7.5-7.5h-107.696c-4.142 0-7.5 3.358-7.5 7.5v1.42c0 4.143 3.358 7.5 7.5 7.5zm0 32.841h107.696c4.142 0 7.5-3.358 7.5-7.5v-1.42c0-4.142-3.358-7.5-7.5-7.5h-107.696c-4.142 0-7.5 3.358-7.5 7.5v1.42c0 4.142 3.358 7.5 7.5 7.5zm-24-152.721h107.696c4.142 0 7.5-3.358 7.5-7.5v-1.42c0-4.142-3.358-7.5-7.5-7.5h-107.696c-4.142 0-7.5 3.358-7.5 7.5v1.42c0 4.142 3.358 7.5 7.5 7.5zm238.309 125.329c-1.471.242-2.98.369-4.52.369-15.241 0-27.596-12.355-27.596-27.596 0-3.934.823-7.675 2.306-11.062h-48.608c-.536 3.61-.813 7.303-.813 11.062 0 41.262 33.449 74.711 74.711 74.711 1.518 0 3.024-.046 4.52-.135z" fill="#7cd2e3"/><path d="m410 312.5v-1.42c0-4.142 3.358-7.5 7.5-7.5h35c4.142 0 7.5 3.358 7.5 7.5v1.42c0 4.142-3.358 7.5-7.5 7.5h-35c-4.142 0-7.5-3.358-7.5-7.5zm-268.5-148.3h29.617c4.142 0 7.5-3.358 7.5-7.5v-1.42c0-4.142-3.358-7.5-7.5-7.5h-29.617c-4.142 0-7.5 3.358-7.5 7.5v1.42c0 4.142 3.358 7.5 7.5 7.5zm95.118 23.92v1.42c0 4.142-3.358 7.5-7.5 7.5h-87.618c-4.142 0-7.5-3.358-7.5-7.5v-1.42c0-4.142 3.358-7.5 7.5-7.5h87.618c4.142 0 7.5 3.358 7.5 7.5zm-39.039 32.84v1.42c0 4.142-3.358 7.5-7.5 7.5h-48.579c-4.142 0-7.5-3.358-7.5-7.5v-1.42c0-4.142 3.358-7.5 7.5-7.5h48.579c4.142 0 7.5 3.358 7.5 7.5zm-39.04 32.841v1.42c0 4.142-3.358 7.5-7.5 7.5h-9.539c-4.142 0-7.5-3.358-7.5-7.5v-1.42c0-4.142 3.358-7.5 7.5-7.5h9.539c4.142 0 7.5 3.357 7.5 7.5zm267.461-45.699c0 41.262-33.449 74.711-74.711 74.711-.225 0-.449-.001-.673-.003v-47.12c.224.005.448.008.673.008 15.241 0 27.596-12.355 27.596-27.596s-12.355-27.596-27.596-27.596c-12.676 0-23.355 8.547-26.591 20.192h-47.757c3.717-37.786 35.585-67.307 74.348-67.307 41.262 0 74.711 33.449 74.711 74.711z" fill="#fb5858"/></g></svg>