<svg height="512" viewBox="0 0 58 58" width="512" xmlns="http://www.w3.org/2000/svg"><g id="Page-1" fill="none" fill-rule="evenodd"><g id="005---Coding-Thinking"><path id="Path" d="m3 4h26v50h-26c-1.65685425 0-3-1.3431458-3-3v-44c0-1.65685425 1.34314575-3 3-3z" fill="#464f5d"/><rect id="Rectangle" fill="#bdc3c7" height="4" rx="2" transform="matrix(0 1 -1 0 58 0)" width="58" y="27"/><g fill="#65ddb9"><path id="Path" d="m4 15c-.43043041 0-.81256925-.2754301-.9486833-.6837722-.13611404-.4083422.00433897-.8579696.3486833-1.1162278l2.933-2.2-2.933-2.2c-.4418278-.33137085-.53137085-.9581722-.2-1.4s.9581722-.53137085 1.4-.2l4 3c.25180584.1888544.4.4852427.4.8s-.14819416.6111456-.4.8l-4 3c-.17309617.1298221-.38362979.2-.6.2z"/><path id="Path" d="m16 15h-4c-.5522847 0-1-.4477153-1-1s.4477153-1 1-1h4c.5522847 0 1 .4477153 1 1s-.4477153 1-1 1z"/><path id="Path" d="m7 21h-3c-.55228475 0-1-.4477153-1-1s.44771525-1 1-1h3c.55228475 0 1 .4477153 1 1s-.44771525 1-1 1z"/><path id="Path" d="m7 25h-3c-.55228475 0-1-.4477153-1-1s.44771525-1 1-1h3c.55228475 0 1 .4477153 1 1s-.44771525 1-1 1z"/><path id="Path" d="m7 29h-3c-.55228475 0-1-.4477153-1-1s.44771525-1 1-1h3c.55228475 0 1 .4477153 1 1s-.44771525 1-1 1z"/><path id="Path" d="m7 33h-3c-.55228475 0-1-.4477153-1-1s.44771525-1 1-1h3c.55228475 0 1 .4477153 1 1s-.44771525 1-1 1z"/><path id="Path" d="m7 37h-3c-.55228475 0-1-.4477153-1-1s.44771525-1 1-1h3c.55228475 0 1 .4477153 1 1s-.44771525 1-1 1z"/><path id="Path" d="m7 41h-3c-.55228475 0-1-.4477153-1-1s.44771525-1 1-1h3c.55228475 0 1 .4477153 1 1s-.44771525 1-1 1z"/><path id="Path" d="m7 45h-3c-.55228475 0-1-.4477153-1-1s.44771525-1 1-1h3c.55228475 0 1 .4477153 1 1s-.44771525 1-1 1z"/><path id="Path" d="m7 49h-3c-.55228475 0-1-.4477153-1-1s.44771525-1 1-1h3c.55228475 0 1 .4477153 1 1s-.44771525 1-1 1z"/><path id="Path" d="m23 21h-12c-.5522847 0-1-.4477153-1-1s.4477153-1 1-1h12c.5522847 0 1 .4477153 1 1s-.4477153 1-1 1z"/><path id="Path" d="m21 25h-8c-.5522847 0-1-.4477153-1-1s.4477153-1 1-1h8c.5522847 0 1 .4477153 1 1s-.4477153 1-1 1z"/><path id="Path" d="m23 29h-12c-.5522847 0-1-.4477153-1-1s.4477153-1 1-1h12c.5522847 0 1 .4477153 1 1s-.4477153 1-1 1z"/><path id="Path" d="m21 33h-8c-.5522847 0-1-.4477153-1-1s.4477153-1 1-1h8c.5522847 0 1 .4477153 1 1s-.4477153 1-1 1z"/><path id="Path" d="m23 37h-12c-.5522847 0-1-.4477153-1-1s.4477153-1 1-1h12c.5522847 0 1 .4477153 1 1s-.4477153 1-1 1z"/><path id="Path" d="m21 41h-8c-.5522847 0-1-.4477153-1-1s.4477153-1 1-1h8c.5522847 0 1 .4477153 1 1s-.4477153 1-1 1z"/><path id="Path" d="m23 45h-12c-.5522847 0-1-.4477153-1-1s.4477153-1 1-1h12c.5522847 0 1 .4477153 1 1s-.4477153 1-1 1z"/><path id="Path" d="m21 49h-8c-.5522847 0-1-.4477153-1-1s.4477153-1 1-1h8c.5522847 0 1 .4477153 1 1s-.4477153 1-1 1z"/></g><path id="Path" d="m49 9h-8.5c-.5522847 0-1-.44771525-1-1s.4477153-1 1-1h8.5c.5522847 0 1-.44771525 1-1v-4c0-.55228475.4477153-1 1-1s1 .44771525 1 1v4c0 1.65685425-1.3431458 3-3 3z" fill="#3b97d3"/><path id="Path" d="m51 57.5c-.5522847 0-1-.4477153-1-1v-4.5c0-.5522847-.4477153-1-1-1h-6c-.5522847 0-1-.4477153-1-1s.4477153-1 1-1h6c1.6568542 0 3 1.3431458 3 3v4.5c0 .2652165-.1053568.5195704-.2928932.7071068s-.4418903.2928932-.7071068.2928932z" fill="#3b97d3"/><path id="Path" d="m56 52c-.5522847 0-1-.4477153-1-1v-3c0-.5522847-.4477153-1-1-1h-7c-.5522847 0-1-.4477153-1-1s.4477153-1 1-1h7c1.6568542 0 3 1.3431458 3 3v3c0 .5522847-.4477153 1-1 1z" fill="#3b97d3"/><path id="Path" d="m54 13h-10.3c-.5522847 0-1-.4477153-1-1s.4477153-1 1-1h10.3c.5522847 0 1-.4477153 1-1v-3.55c0-.55228475.4477153-1 1-1s1 .44771525 1 1v3.55c0 1.6568542-1.3431458 3-3 3z" fill="#3b97d3"/><path id="Path" d="m53.33 34.69c.4412909.7736386.6722869 1.6493547.67 2.54-.0013744 2.7301244-2.1073972 4.9974782-4.83 5.2.4300117.813332.6532432 1.7199954.65 2.64.0015943 1.525483-.6036955 2.9889445-1.6823755 4.0676245s-2.5421415 1.6839698-4.0676245 1.6823755c-1.2524135 2.9836259-4.4338361 4.6714436-7.6065431 4.0354458-3.172707-.6359979-5.4577877-3.4196258-5.4634569-6.6554458v-40.25s0-7.62 9.93-1.5c.81.5 1.69 1.09 2.64 1.79l.01.01c.0416617.01235898.0818886.02912019.12.05 1.7993533.69728113 2.9838272 2.4302698 2.98 4.36-.0000226.1804158-.0100379.3606919-.03.54-.0867389.7309112-.33989 1.4322082-.74 2.05-.01.01-.01.02-.02.03 3.3645929.1347769 6.0221614 2.9027095 6.02 6.27.0006352.5678907-.0767551 1.1331762-.23 1.68 1.412592 1.2376585 2.2504099 3.0044306 2.3148069 4.8814143s-.6503617 3.6970228-1.9748069 5.0285857l.02.02c.533351.4130445.9730263.9345198 1.29 1.53z" fill="#ff5364"/><path id="Path" d="m46.65 13.2c-.0867389.7309112-.33989 1.4322082-.74 2.05-3.1700072.4074844-5.545433 3.1039136-5.55 6.3 0 .5522847-.4477153 1-1 1s-1-.4477153-1-1c.0047817-4.5862266 3.7039271-8.3121451 8.29-8.35z" fill="#df4d60"/><path id="Path" d="m53.33 34.69c-1.7496519 1.3682985-3.908861 2.1079949-6.13 2.1-.5522847 0-1-.4477153-1-1s.4477153-1 1-1c1.7491574.0066133 3.4511999-.5665952 4.84-1.63.533351.4130445.9730263.9345198 1.29 1.53z" fill="#df4d60"/><path id="Path" d="m43.7 8.3c-.3149177-.07222916-.6369065-.10912371-.96-.11-2.4675706.00275553-4.4672445 2.0024294-4.47 4.47 0 .5522847-.4477153 1-1 1s-1-.4477153-1-1c.0017399-2.87522213 1.8998587-5.40468944 4.66-6.21.81.5 1.69 1.09 2.64 1.79l.01.01c.0416617.01235898.0818886.02912019.12.05z" fill="#df4d60"/><path id="Path" d="m45.531 32.966c.0365309.0039918.0732517.0059947.11.006.5305523-.0012494.9677793-.4166218.9962085-.9464133.0284291-.5297916-.3618366-.9895681-.8892085-1.0475867-1.3790364-.1591564-2.5544624-1.0735052-3.048-2.371 3.5240131-.8245212 6.0179488-3.9648181 6.023-7.584 0-.5522847-.4477153-1-1-1s-1 .4477153-1 1c-.0034006 2.3424915-1.4155661 4.452978-3.5796114 5.3497422-2.1640452.8967643-4.6550871.4037379-6.3143886-1.2497422-.3923789-.3789722-1.0160848-.3735524-1.4018186.0121814s-.3911536 1.0094397-.0121814 1.4018186c1.393116 1.3968417 3.2671485 2.2088391 5.239 2.27.6274575 2.2498685 2.5562743 3.8947217 4.877 4.159z" fill="#df4d60"/><path id="Path" d="m45.636 42.5c-.3684713.00268-.7362027.0334357-1.1.092 0-.046.008-.091.008-.137-.0038579-4.0147775-3.257223-7.26859-7.272-7.273-.5522847 0-1 .4477153-1 1s.4477153 1 1 1c2.9106644.0033075 5.2692445 2.362335 5.272 5.273-.0021466.259932-.0238748.5193329-.065.776-2.5127289 1.2112413-4.111648 3.7525748-4.116 6.542 0 .5522847.4477153 1 1 1s1-.4477153 1-1c.0027564-2.911055 2.361945-5.2702436 5.273-5.273.5522847 0 1-.4477153 1-1s-.4477153-1-1-1z" fill="#df4d60"/><path id="Path" d="m34.14 20.5c0 .5522847-.4477153 1-1 1-1.1814324.0011026-2.1388974.9585676-2.14 2.14v-3.53c.6416805-.4007461 1.3834642-.6121891 2.14-.61.5522847 0 1 .4477153 1 1z" fill="#df4d60"/><path id="Path" d="m37.8 41.41c0 .5522847-.4477153 1-1 1-3.1993504-.0000048-5.7944839 2.5906544-5.8 5.79v-5.19c1.4718098-1.6572414 3.5835483-2.6038827 5.8-2.6.5522847 0 1 .4477153 1 1z" fill="#df4d60"/><circle id="Oval" cx="51" cy="2" fill="#f0c419" r="2"/><circle id="Oval" cx="56" cy="7" fill="#f0c419" r="2"/><circle id="Oval" cx="51" cy="56" fill="#f0c419" r="2"/><circle id="Oval" cx="56" cy="51" fill="#f0c419" r="2"/></g></g></svg>